<?xml version="1.0" encoding="UTF-8"?>
<svg id="Layer_1" data-name="Layer 1" xmlns="http://www.w3.org/2000/svg" viewBox="0 0 304.548 85.181">
  <defs>
    <style>
      .cls-1 {
        fill: #28404c;
      }

      .cls-2 {
        fill: #7e9ba7;
      }

      .cls-3 {
        fill: #cdd4d9;
      }
    </style>
  </defs>
  <g>
    <path class="cls-3" d="M144.72,39.158c-1.922,2.034-6.032,8.674-8.9,8.871-2.859.196-1.108-5.464-.69-7.147.337-1.354,1.265-4.822,1.842-5.926,1.136-2.169,5.36.758,5.844-3.034.373-2.922-2.974-.198-3.755-2.205l3.731-11.491c-1.195-2.398-5.064-2.234-6.842-.497-.983.961-2.062,4.205-2.579,5.632-.481,1.327-1.482,5.615-2.135,6.412-1.365,1.667-6.164-.674-5.915,3.047.15,2.24,3.727.384,4.116,1.894.051.197-.867,3.48-1.042,3.821-.256.502-2.251,2.94-2.749,3.511-.811.927-6.124,5.955-7.211,4.88.823-3.612-1.352-6.568-2.33-9.766-.836-2.737-.756-5.626,2.725-5.817,1.351-2.555-2.82-3.862-4.692-3.71-5.302.431-9.866,6.879-13.022,10.458-.867.983-2.306,1.885-3.088,2.954-.826,1.129-1.074,2.623-1.987,3.783-1.264,1.606-4.584,4.017-6.611,2.711-1.483-1.721,2.686-6.637,3.533-8.233,1.073-2.021,1.75-4.369.369-6.438-2.261-3.389-8.487-2.462-11.94-1.925-.426-.46,1.501-3.338-1.6-4.503-4.405-1.655-6.681-.158-8.091,4.02-.6,1.779-1.614,4.538.61,5.521.032.384-.11.724-.23,1.077-.603,1.771-5.655,7.837-7.221,9.197-1.139.988-4.548,3.607-5.165.733-.549-2.558,4.029-11.073,4.837-13.954.28-1.575-2.688-2.521-3.879-2.551-.686-.017-2.387.461-2.977.812-1.445.86-3.08,5.848-3.734,7.585-1.778,4.721-5.029,11.975.858,15.236,8.514,4.716,18.057-7.973,21.606-14.287.565-1.004.919-2.147,1.528-3.133.559-.437,4.295-.723,5.131-.654.437.036,1.656.121,1.623.74-.044.823-3.395,5.315-4.045,6.621-2.779,5.583-1.77,10.194,4.739,11.629,4.793,1.056,8.241-1.127,12.059-3.641,6.713,8.671,21.248,5.87,28.419-.853.544-.048,1.35,1.772,1.882,2.281,4.849,4.637,11.361.72,15.177-3.138,1.759-1.778,4.92-5.655,5.577-8.074.569-2.091-2.126-3.667-3.777-2.448ZM110.449,47.037c-2.55,3.279-7.177.028-5.424-2.986,1.286-2.21,6.374-.578,4.407-4.431-.083-.675-1.849-.737-1.642-1.237.122-.296,1.931-1.956,2.215-1.668.589,3.067,2.645,7.49.444,10.321Z"/>
    <g>
      <path class="cls-3" d="M178.316,18.411c-2.192,1.597-4.646,4.946-6.052,7.277-3.155,5.229-7.798,16.308-4.479,22.006,1.653,2.838,5.152,3.474,7.458.964.874-.951,1.646-2.387,1.255-3.701-.464-1.558-2.82-2.549-.506-4.697,3.046-2.827,7.833.091,8.384,3.924.96,6.68-7.328,12.13-13.308,11.675-26.736-2.034-5.388-51.501,15.636-43.484,10.481,3.996,2.736,19.509-5.758,16.545-2.008-.701-3.665-3.16-2.552-5.246.645-1.209,2.414-.247,3.335-.192,3.211.191,6.01-5.151,2.957-6.472-2.378-1.029-4.478.025-6.369,1.402Z"/>
      <path class="cls-3" d="M303.717,38.499c-2.154-1.46-3.997,1.328-5.248,2.944-.902,1.185-1.9,2.366-3.053,3.385-1.857,1.762-4.667,2.642-3.823-.789.969-3.421,3.645-6.981,2.249-10.642-.868-2.12-3.326-3.7-5.628-4.082-2.982-.521-5.698,1.152-7.724,3.239l-.066.066c-1.519,1.519-3.286,3.561-2.947,1.107.377-1.825,1.122-4.301,2.136-5.642,1.519-1.808,4.247-2.279,6.294-3.385,6.993-3.251,12.181-13.816,3.222-17.593-4.581-1.398-9.297,1.872-11.702,5.675-1.089,1.633-2.072,3.937-3.364,5.007-2.151,1.613-5.143.442-7.516-.181-7.213-2.364-15.186-7.816-22.671-3.989-3.299,1.609-6.339,5.849-5.066,9.533.886,2.407,2.966,2.562,4.955,1.478,6.816-4.204,14.923-2.982,22.325-.646,5.439,1.483,5.801,3.118,4.312,8.307-.552,2.061-1.186,4.125-1.829,6.193-2.936,4.278-12.396,10.48-16.792,8.592-5.213-2.198.552-15.711,4.018-12.267.857,1.04-.242,3.391,1.045,4.273.927.529,2.398.111,3.039-.759.996-1.231,1.061-3.35.502-5.037-.438-1.397-1.517-2.614-2.786-3.269-3.532-1.746-7.99-.228-10.815,2.239-3.639,3.268-3.083,7.436-8.351,11.59-1.261.984-2.461,1.798-3.995,2.342-2.794,1.045-5.033.282-4.532-2.941.439-2.391,1.333-7.003,2.728-9.507,1.267-1.904,4.488.079,5.384-2.305.936-2.858-1.505-1.924-2.947-2.571-.589-.4-.25-1.305-.148-1.893.664-2.547,2.235-5.489,2.992-8.011.219-.764.446-1.651.054-2.386-1.485-2.096-5.165-1.815-6.705.153-2.262,3.097-2.625,7.365-4.178,10.848-.194.43-.449.858-.818,1.146-1.026.857-2.739.23-3.972.708-1.755.783-1.765,3.207.459,3.287,1.08.106,1.771-.02,1.973.514.264,2.406-1.281,4.905-2.688,6.805-1.38,2.036-9.415,9.98-11.466,6.044-1.213-3.385.839-8.471,2.058-11.795.444-1.222,1.717-2.483.858-3.812-1.025-1.57-3.671-2.177-5.382-1.836-.688.144-1.246.601-1.874.902-1.427.708-2.866-.4-4.348-.365-9.802-.543-17.212,10.297-14.539,19.458,1.593,4.536,7.42,6.518,11.381,3.15,1.131-.879,1.84-2.312,2.694-3.467,1.429-1.876,1.409.926,1.897,1.794,2.517,4.567,10.574,4.701,14.591,1.687.684-.465,1.339-.98,1.984-1.5.792-.662,1.515-1.347,2.22-.336,4.112,6.927,14.883,2.666,19.703-1.058.869-.817,1.488.31,2.015,1.005,3.402,4.783,10.59,4.1,15.558,2.122,2.132-.836,4.372-2.302,6.317-3.227-.038.351-.059.704-.042,1.058-.061,2.622,3.24,4.991,5.519,3.499,1.493-1.11,1.851-3.238,2.546-4.888,1.498-3.801,3.679-7.497,6.413-10.522.941-1.009,2.036-2.099,3.309-2.628,2.228-.908,2.244,1.197,1.549,2.761-2.233,4.53-4.886,11.079.389,14.386,6.126,3.748,13.39-2.222,17.134-7.555,1.189-1.742,3.15-4.617,1.192-6.414ZM285.682,13c.707-.667,1.636-1.347,2.629-1.328l.073.004c.965.051,1.515,1.02,1.471,1.913.095,2.339-4.666,7.012-7.035,6.581-2.22-1.05,1.745-6.182,2.861-7.169ZM203.73,36.56c-.874,2.081-3.288,6.334-4.536,7.999-.757.81-1.831,2.272-2.843,2.483-1.53.329-1.828-1.477-1.746-2.663.327-3.35,3.154-9.511,6.256-10.467l.073-.016c1.923-.421,3.682.61,2.795,2.665Z"/>
    </g>
    <path class="cls-3" d="M76.72,10.077c-.634-5.282-5.504-7.87-10.795-8.257-7.329-.201-13.724,4.513-17.327,10.029-.911,1.391-1.722,2.896-2.582,4.335-.877,1.399-1.447,2.651-2.939,3.318-1.55.711-3.8.203-5.38,1.083-.91.464-1.566,1.363-1.589,2.328-.055,2.818,4.471,1.537,4.146,4.557-3.259,10.876-8.154,24.285-12.828,38.101-1.848,5.322-9.136,16.069-16.417,13.047-1.866-.739-3.199-1.824-3.563-3.682-.77-3.266-.231-6.682,1.162-9.868,1.377-2.249,4.003-.084,5.509.889,2.104,1.182-.952-5.752-3.063-10.221-.857-2.019-2.267-3.032-3.465-.625-2.938,6.255-6.986,14.014-4.887,21.265,3.884,13.41,21.614,9.449,28.861,1.684,8.742-6.263,15.24-31.247,16.938-36.769,1.063-3.076,2.994-8.307,4.081-10.759.522-1.168,1.199-2.255,2.402-2.982,2.342-1.513,5.56.197,7.98-1.034,1.453-.754,2.191-3.222,1.168-4.155-1.169-.984-3.115-.614-4.513-1.016-3.463-.823,1.965-5.892,3.647-6.364,3.318-1.485,5.042,2.11,8.218,2.515,4.12.439,5.88-4.131,5.256-7.287l-.021-.131Z"/>
  </g>
  <g>
    <g>
      <path class="cls-2" d="M107.748,55.379c-3.646,0-8.711-.938-12.211-5.383-2.908,1.914-5.92,3.87-9.603,3.87-.801,0-1.627-.093-2.457-.275-2.895-.638-4.818-1.917-5.72-3.8-.99-2.071-.681-4.84.896-8.007.264-.529.961-1.569,1.699-2.67,1.028-1.533,2.309-3.442,2.333-3.901.026-.483-1.104-.576-1.477-.606-.113-.009-.223-.013-.355-.013-1.319,0-4.273.289-4.72.638-.297.496-.556,1.083-.805,1.651-.212.482-.432.98-.691,1.444-3.211,5.712-10.575,15.378-17.811,15.378-1.381,0-2.715-.351-3.965-1.043-5.617-3.11-3.099-9.683-1.261-14.481l.346-.907c.086-.228.188-.512.306-.835.818-2.261,2.188-6.044,3.481-6.813.612-.365,2.297-.83,3.003-.83.919.021,2.893.558,3.702,1.548.296.362.409.749.338,1.149-.281,1.005-.986,2.621-1.802,4.493-1.51,3.461-3.388,7.769-3.035,9.413.175.813.58,1.209,1.241,1.208,1.306,0,3.177-1.538,3.719-2.01,1.507-1.307,6.593-7.401,7.186-9.143l.045-.13c.098-.277.189-.541.183-.824-2.172-1.025-1.265-3.703-.661-5.481l.055-.161c1.098-3.251,2.719-4.766,5.103-4.766.923,0,1.953.219,3.15.669,2.323.873,1.942,2.685,1.715,3.767-.058.275-.122.582-.092.717,1.373-.214,3.404-.523,5.398-.523,3.251,0,5.465.847,6.578,2.516,1.171,1.755,1.052,3.902-.363,6.565-.2.377-.582.937-1.024,1.583-1.434,2.096-3.599,5.263-2.523,6.51.338.212.768.331,1.25.331,1.896,0,4.204-1.812,5.167-3.037.469-.595.764-1.294,1.05-1.97.263-.62.533-1.261.936-1.811.447-.611,1.104-1.168,1.74-1.706.504-.428.98-.831,1.354-1.256.465-.526.96-1.116,1.483-1.739,2.976-3.541,7.051-8.39,11.623-8.762.101-.008.208-.012.321-.012,1.343,0,3.703.619,4.503,1.947.361.601.357,1.259-.013,1.958-.021.039-.06.063-.104.066-1.182.064-2.03.455-2.522,1.159-.841,1.204-.513,3.11-.09,4.497.276.901.655,1.803,1.022,2.675.93,2.206,1.89,4.486,1.327,7.08.072.048.165.072.282.072,1.56,0,5.864-4.035,6.696-4.987.561-.643,2.488-3.011,2.731-3.485.178-.347,1.044-3.496,1.03-3.745-.137-.524-.782-.568-1.548-.568h-.391c-.832,0-2.09,0-2.18-1.336-.051-.764.099-1.326.458-1.721.621-.681,1.754-.711,2.851-.739,1.094-.028,2.127-.056,2.635-.675.419-.513,1.013-2.61,1.49-4.297.248-.876.462-1.633.624-2.079l.186-.519c.57-1.602,1.525-4.282,2.424-5.16.846-.827,2.212-1.341,3.564-1.341,1.594,0,2.894.699,3.478,1.871l-3.725,11.586c.197.431.586.65,1.297.65.217,0,.44-.019.66-.036.217-.019.429-.036.627-.036.312,0,.701.037.953.322.227.258.3.678.223,1.281-.264,2.063-1.603,2.236-2.95,2.236l-.743-.006c-.906,0-1.754.065-2.164.847-.548,1.047-1.438,4.315-1.832,5.897l-.133.515c-.417,1.586-1.285,4.886-.38,6.06.22.284.526.423.939.423l.133-.005c2.047-.14,4.833-3.769,6.868-6.418.769-1.002,1.433-1.866,1.95-2.414.416-.31.897-.465,1.411-.465.842,0,1.68.413,2.188,1.077.438.573.576,1.268.39,1.955-.637,2.338-3.664,6.161-5.61,8.129-1.57,1.588-5.706,5.281-10.179,5.281h0c-1.946,0-3.687-.721-5.172-2.141-.212-.203-.453-.584-.709-.987-.337-.532-.798-1.261-1.066-1.261-4.025,3.802-10.433,6.28-16.256,6.28ZM108.019,35.246c-.423.032-1.888,1.373-1.991,1.623.045.161.344.274.608.375.465.177.991.377,1.043.798.447.859.561,1.536.335,2.029-.315.686-1.219.905-2.176,1.138-1.031.25-2.097.509-2.582,1.343-.489.84-.495,1.759-.02,2.587.554.961,1.628,1.582,2.737,1.582.671,0,1.648-.229,2.499-1.323,1.671-2.148.828-5.25.085-7.985-.209-.769-.406-1.495-.539-2.166Z"/>
      <path class="cls-3" d="M137.551,14.861c1.398,0,2.744.554,3.365,1.802l-3.731,11.491c.262.674.813.815,1.416.815.432,0,.89-.072,1.287-.072.7,0,1.21.224,1.052,1.463-.251,1.969-1.511,2.127-2.824,2.127-.25,0-.501-.006-.748-.006-.954,0-1.838.085-2.272.913-.578,1.103-1.506,4.571-1.842,5.926-.411,1.654-2.111,7.152.548,7.152.046,0,.093-.002.142-.005,2.868-.197,6.978-6.837,8.9-8.871.399-.295.86-.426,1.32-.426,1.443,0,2.888,1.289,2.457,2.874-.658,2.419-3.819,6.296-5.577,8.074-2.58,2.608-6.393,5.244-10.091,5.244-1.771,0-3.516-.605-5.086-2.106-.525-.502-1.317-2.281-1.86-2.281-.007,0-.014,0-.021,0-4,3.75-10.289,6.279-16.236,6.279-4.715,0-9.215-1.591-12.184-5.426-3.142,2.069-6.033,3.913-9.63,3.913-.774,0-1.581-.085-2.429-.272-6.509-1.435-7.518-6.046-4.739-11.629.65-1.306,4-5.798,4.045-6.621.033-.619-1.186-.704-1.623-.74-.084-.007-.198-.01-.335-.01-1.222,0-4.293.271-4.796.664-.608.986-.963,2.128-1.528,3.133-3.013,5.36-10.346,15.315-17.701,15.315-1.309,0-2.618-.315-3.905-1.028-5.887-3.261-2.636-10.515-.858-15.236.654-1.736,2.288-6.725,3.734-7.585.58-.345,2.232-.813,2.94-.813.013,0,.025,0,.037,0,1.192.03,4.16.976,3.879,2.551-.808,2.881-5.385,11.396-4.837,13.954.206.96.723,1.307,1.364,1.307,1.277,0,3.043-1.382,3.801-2.04,1.567-1.36,6.618-7.427,7.221-9.197.12-.352.262-.692.23-1.077-2.224-.983-1.21-3.742-.61-5.521,1.033-3.059,2.529-4.681,4.985-4.68.899,0,1.926.217,3.106.661,3.101,1.165,1.174,4.043,1.6,4.503,1.487-.231,3.488-.535,5.466-.535,2.614,0,5.187.531,6.474,2.46,1.38,2.069.704,4.417-.369,6.438-.847,1.595-5.016,6.512-3.533,8.233.406.262.863.374,1.345.374,1.928,0,4.255-1.8,5.266-3.085.913-1.16,1.161-2.654,1.987-3.783.782-1.069,2.222-1.97,3.088-2.954,3.156-3.58,7.72-10.028,13.022-10.458.098-.008.202-.012.312-.012,1.982,0,5.661,1.301,4.38,3.722-3.48.191-3.561,3.08-2.725,5.817.977,3.198,3.152,6.154,2.33,9.766.104.103.247.15.421.15,1.643,0,6.057-4.192,6.79-5.03.498-.57,2.493-3.009,2.749-3.511.174-.341,1.092-3.625,1.042-3.821-.162-.63-.881-.674-1.673-.674-.127,0-.256.001-.385.001-.992,0-1.98-.066-2.058-1.221-.249-3.721,4.55-1.38,5.915-3.047.653-.797,1.654-5.085,2.135-6.412.517-1.427,1.596-4.671,2.579-5.632.853-.834,2.188-1.305,3.477-1.305M105.975,46.845c.901,0,1.841-.398,2.597-1.371,2.201-2.831.145-7.254-.444-10.321-.022-.023-.055-.033-.095-.033-.465,0-2.008,1.429-2.121,1.701-.206.5,1.559.562,1.642,1.237,1.968,3.853-3.12,2.221-4.407,4.431-1.233,2.12.69,4.357,2.826,4.357M137.551,14.611s0,0,0,0c-1.405,0-2.77.514-3.652,1.376-.919.898-1.881,3.598-2.455,5.211l-.184.514c-.163.449-.377,1.206-.625,2.083-.449,1.588-1.065,3.764-1.468,4.256-.471.575-1.477.602-2.542.629-1.122.029-2.283.06-2.939.78-.383.421-.543,1.013-.49,1.813.097,1.454,1.481,1.454,2.307,1.454h.195s.19-.001.19-.001c.866,0,1.325.075,1.431.486-.011.255-.856,3.321-1.022,3.645-.235.459-2.173,2.84-2.715,3.46-.925,1.059-5.152,4.945-6.602,4.945-.059,0-.105-.007-.14-.018.527-2.592-.429-4.861-1.353-7.057-.366-.869-.744-1.768-1.018-2.664-.416-1.36-.74-3.225.072-4.388.469-.671,1.286-1.043,2.428-1.106.088-.005.166-.055.207-.133.386-.73.389-1.45.009-2.081-.825-1.37-3.239-2.008-4.611-2.008-.117,0-.228.004-.332.013-4.624.376-8.719,5.248-11.709,8.806-.523.622-1.017,1.21-1.481,1.736-.368.418-.842.819-1.343,1.243-.641.543-1.304,1.104-1.76,1.728-.41.561-.684,1.209-.949,1.836-.283.668-.575,1.359-1.032,1.941-.949,1.206-3.216,2.989-5.069,2.989-.445,0-.841-.106-1.178-.314-.957-1.197,1.239-4.408,2.556-6.332.444-.649.828-1.21,1.031-1.593,1.438-2.708,1.555-4.898.356-6.694-1.138-1.706-3.386-2.571-6.682-2.571-1.94,0-3.911.291-5.284.504.014-.139.062-.367.099-.547.22-1.048.63-2.999-1.793-3.91-1.211-.455-2.256-.676-3.194-.677-2.445,0-4.105,1.541-5.222,4.85l-.055.161c-.611,1.802-1.527,4.505.654,5.599-.01.235-.091.464-.175.705l-.045.131c-.588,1.726-5.648,7.787-7.149,9.089-.535.464-2.377,1.979-3.637,1.979-.378,0-.906-.115-1.119-1.11-.344-1.605,1.525-5.892,3.027-9.336.818-1.876,1.525-3.497,1.806-4.498.083-.462-.039-.883-.359-1.274-.874-1.069-2.91-1.574-3.755-1.595h-.001c-.781,0-2.471.467-3.11.848-1.23.732-2.471,3.937-3.537,6.884-.116.32-.218.601-.303.827-.11.292-.226.594-.345.905-1.855,4.842-4.397,11.474,1.316,14.638,1.268.703,2.623,1.059,4.026,1.059,7.293,0,14.695-9.707,17.919-15.442.264-.469.484-.97.697-1.455.241-.548.49-1.115.799-1.625.496-.301,3.226-.589,4.61-.589.128,0,.235.003.314.01,1.235.102,1.402.343,1.394.478-.023.425-1.345,2.397-2.31,3.837-.741,1.105-1.441,2.149-1.708,2.686-1.594,3.203-1.904,6.009-.897,8.116.918,1.92,2.872,3.222,5.806,3.868.838.185,1.674.278,2.483.278,3.679,0,6.682-1.924,9.575-3.828,3.529,4.408,8.59,5.341,12.238,5.341,5.811,0,12.2-2.455,16.316-6.262.227.121.676.829.901,1.185.26.41.505.797.727,1.01,1.51,1.444,3.279,2.175,5.259,2.175,4.52,0,8.687-3.719,10.268-5.318,1.537-1.554,4.938-5.598,5.641-8.184.197-.726.051-1.459-.411-2.063-.531-.695-1.408-1.127-2.287-1.127-.54,0-1.048.164-1.469.475-.555.582-1.221,1.449-1.992,2.453-2.02,2.631-4.787,6.234-6.777,6.37-.043.003-.084.004-.125.004-.372,0-.647-.123-.841-.375-.868-1.126-.01-4.386.403-5.953.052-.196.097-.369.133-.514.456-1.832,1.317-4.906,1.821-5.87.341-.652,1.01-.779,2.05-.779l.369.003.379.003c1.341,0,2.795-.181,3.072-2.345.082-.642,0-1.093-.253-1.38-.287-.327-.735-.364-1.047-.364-.201,0-.417.018-.637.036-.216.018-.436.036-.649.036-.621,0-.961-.168-1.149-.576l3.702-11.403c.02-.062.015-.13-.014-.189-.605-1.215-1.947-1.94-3.589-1.94h0ZM106.16,36.889c.192-.297,1.321-1.298,1.763-1.488.132.638.318,1.322.514,2.042.736,2.708,1.571,5.778-.062,7.878-.819,1.053-1.757,1.275-2.4,1.275-1.05,0-2.106-.611-2.629-1.52-.453-.788-.446-1.662.019-2.461.459-.788,1.498-1.041,2.503-1.285.987-.24,1.919-.466,2.259-1.207.24-.523.132-1.224-.332-2.143-.09-.462-.634-.669-1.115-.852-.177-.067-.435-.165-.52-.238h0Z"/>
    </g>
    <g>
      <g>
        <path class="cls-2" d="M169.903,54.446c-.244,0-.484-.009-.722-.026-8.346-.636-12.938-6.118-12.599-15.044.495-13.033,11.677-29.567,23.538-29.567,1.61,0,3.208.298,4.751.886,3.862,1.474,5.724,4.77,4.979,8.817-.738,4.012-4.24,8.342-8.611,8.343h0c-.743,0-1.486-.128-2.211-.381-1.201-.419-2.276-1.457-2.741-2.645-.377-.964-.336-1.925.119-2.777.242-.453.645-.673,1.23-.673.443,0,.932.127,1.363.239.321.083.625.162.859.176l.161.005c1.858,0,3.551-1.918,3.907-3.64.253-1.221-.173-2.167-1.169-2.599-.618-.267-1.253-.402-1.886-.402-1.686,0-3.215.957-4.36,1.79-2.177,1.588-4.603,4.893-6.018,7.241-3.523,5.838-7.623,16.481-4.479,21.879.899,1.546,2.39,2.47,3.986,2.47,1.204,0,2.365-.542,3.271-1.527.406-.442,1.696-2.008,1.227-3.58-.13-.439-.428-.846-.717-1.237-.721-.982-1.467-1.998.247-3.589.819-.761,1.825-1.162,2.907-1.162,2.68,0,5.283,2.363,5.686,5.16.343,2.393-.453,4.785-2.303,6.919-2.553,2.945-6.739,4.925-10.417,4.925Z"/>
        <path class="cls-3" d="M180.121,9.933c1.558,0,3.131.278,4.706.878,9.576,3.652,3.936,16.919-3.588,16.919-.711,0-1.437-.118-2.17-.374-2.008-.701-3.665-3.16-2.552-5.246.246-.461.656-.606,1.12-.606.752,0,1.645.381,2.215.415.056.003.113.005.169.005,3.139,0,5.788-5.179,2.788-6.477-.666-.288-1.311-.413-1.935-.413-1.604,0-3.073.824-4.434,1.815-2.192,1.597-4.646,4.946-6.052,7.277-3.155,5.229-7.798,16.308-4.479,22.006.948,1.629,2.505,2.532,4.095,2.532,1.181,0,2.38-.498,3.363-1.568.874-.951,1.646-2.387,1.255-3.701-.464-1.558-2.82-2.549-.506-4.697.849-.788,1.833-1.13,2.823-1.13,2.563,0,5.164,2.289,5.561,5.053.922,6.418-6.694,11.701-12.596,11.701-.241,0-.477-.009-.712-.027-24.734-1.882-8.313-44.362,10.931-44.362M180.121,9.683c-5.576,0-11.491,3.641-16.228,9.988-4.412,5.912-7.192,13.277-7.436,19.701-.342,9.001,4.292,14.531,12.714,15.172.241.018.484.027.731.027,3.712,0,7.937-1.997,10.512-4.968,1.874-2.162,2.68-4.59,2.331-7.019-.41-2.855-3.07-5.268-5.808-5.268-1.115,0-2.15.414-2.993,1.196-1.795,1.666-.981,2.775-.262,3.754.282.384.573.78.698,1.198.45,1.511-.804,3.031-1.199,3.461-.881.959-2.01,1.487-3.179,1.487-1.551,0-3.001-.9-3.879-2.408-3.115-5.35.971-15.939,4.477-21.751,1.412-2.34,3.826-5.631,5.985-7.204,1.129-.823,2.637-1.767,4.286-1.767.616,0,1.234.132,1.836.393,1.282.555,1.237,1.778,1.096,2.458-.347,1.674-1.986,3.54-3.785,3.54-.051,0-.103-.001-.154-.005-.222-.013-.52-.091-.836-.173-.438-.114-.935-.243-1.393-.243-.628,0-1.079.249-1.341.739-.473.886-.516,1.883-.125,2.882.477,1.22,1.582,2.287,2.816,2.717.737.257,1.495.388,2.252.388,4.434,0,7.986-4.383,8.734-8.445.757-4.113-1.133-7.461-5.057-8.957-1.556-.594-3.17-.894-4.795-.894h0Z"/>
      </g>
      <g>
        <path class="cls-2" d="M209.214,52.399c-3.626,0-6.571-1.418-7.88-3.792-.142-.253-.237-.638-.339-1.045-.146-.588-.328-1.318-.638-1.318-.121,0-.343.102-.711.585-.249.336-.486.698-.727,1.063-.578.882-1.176,1.793-1.99,2.426-1.319,1.122-2.914,1.716-4.606,1.716-3.135,0-5.936-1.979-6.971-4.924-1.316-4.515-.279-9.636,2.773-13.705,2.83-3.774,6.904-5.938,11.178-5.938.236,0,.475.007.714.02h.006c.631,0,1.191.157,1.733.309.539.15,1.048.293,1.559.293.361,0,.684-.073.987-.224.209-.1.408-.217.607-.333.402-.236.819-.479,1.297-.579.314-.062.657-.095,1.021-.095,1.59,0,3.595.614,4.49,1.984.666,1.031.141,2-.367,2.936-.186.342-.361.665-.479.988l-.243.66c-1.238,3.344-2.934,7.924-1.813,11.049.348.665.892.996,1.656.996,3.045,0,8.433-5.364,9.587-7.068,1.274-1.721,2.935-4.284,2.668-6.721-.113-.287-.455-.319-1.155-.355-.213-.011-.449-.023-.707-.049-.977-.034-1.656-.525-1.809-1.312-.145-.744.26-1.743,1.312-2.213.553-.215,1.188-.217,1.8-.22.817-.004,1.589-.007,2.143-.469.299-.233.555-.593.784-1.103.599-1.342,1.028-2.832,1.443-4.273.663-2.302,1.349-4.682,2.748-6.597.8-1.022,2.21-1.655,3.682-1.655,1.373,0,2.55.548,3.227,1.504.441.825.154,1.828-.036,2.492-.353,1.175-.889,2.46-1.408,3.702-.604,1.448-1.229,2.946-1.584,4.307-.016.092-.04.204-.065.321-.12.54-.255,1.153.163,1.437.38.168.866.222,1.338.274.709.078,1.378.151,1.695.644.246.381.233.969-.037,1.796-.506,1.345-1.701,1.386-2.857,1.425-1.019.034-1.98.067-2.541.91-1.449,2.598-2.365,7.584-2.71,9.461-.174,1.119-.021,1.971.455,2.526.396.462,1.024.706,1.818.706.624,0,1.328-.146,2.092-.431,1.498-.532,2.667-1.313,3.961-2.324,2.913-2.297,4.016-4.563,5.081-6.756.841-1.73,1.635-3.365,3.264-4.828,2.168-1.895,4.988-3.024,7.547-3.024,1.233,0,2.379.258,3.407.766,1.346.695,2.411,1.945,2.85,3.345.527,1.59.57,3.801-.524,5.153-.456.619-1.334,1.039-2.181,1.039-.378,0-.73-.087-1.017-.251-.772-.528-.759-1.497-.745-2.436.011-.737.021-1.434-.336-1.867-.34-.337-.726-.513-1.136-.513-1.881,0-3.896,3.487-4.53,6.616-.607,3.008.062,5.24,1.794,5.97.523.225,1.142.339,1.84.339h0c4.605,0,12.112-4.971,14.799-8.887.63-2.045,1.256-4.082,1.812-6.154.755-2.632,1.056-4.397.357-5.637-.599-1.064-1.927-1.794-4.582-2.518-4.542-1.434-8.415-2.13-11.844-2.13-3.973,0-7.369.903-10.383,2.762-.796.435-1.588.662-2.295.662-.927,0-2.172-.382-2.843-2.203-1.271-3.68,1.627-7.98,5.129-9.688,1.759-.899,3.613-1.337,5.668-1.337,3.997,0,8.033,1.685,11.936,3.314,1.789.747,3.479,1.453,5.162,2.004.297.078.611.167.934.258,1.216.344,2.595.733,3.863.733,1.044,0,1.896-.259,2.605-.79.849-.704,1.579-1.986,2.286-3.227.34-.598.691-1.215,1.049-1.75,1.767-2.794,5.34-6.061,9.589-6.061.767,0,1.525.113,2.253.336,3.944,1.661,4.813,4.42,4.85,6.442.077,4.247-3.461,9.247-8.055,11.383-.681.368-1.456.674-2.206.969-1.5.591-3.052,1.201-4.045,2.383-1.219,1.611-1.923,4.684-2.109,5.587-.091.663-.005.878.054.946.027.03.06.044.105.044.402,0,1.305-.919,2.102-1.73l.476-.481c1.558-1.603,3.935-3.438,6.772-3.438.376,0,.756.033,1.127.098,2.539.422,4.893,2.133,5.722,4.158,1.017,2.663-.076,5.259-1.134,7.769-.43,1.021-.835,1.983-1.11,2.955-.22.896-.195,1.553.072,1.895.15.191.381.288.685.288.754,0,1.903-.61,2.86-1.519.988-.874,1.953-1.944,3.039-3.371l.303-.396c.965-1.269,2.285-3.007,3.813-3.007.441,0,.88.146,1.302.432,2.054,1.882.043,4.828-1.158,6.588-2.845,4.052-7.985,8.782-13.112,8.782h0c-1.487,0-2.897-.4-4.189-1.191-5.151-3.229-2.938-9.471-.436-14.548.362-.816.566-1.896.201-2.458-.148-.227-.383-.342-.699-.342-.25,0-.55.071-.893.211-1.27.526-2.351,1.616-3.265,2.597-2.616,2.895-4.826,6.52-6.389,10.482-.175.416-.328.86-.482,1.311-.471,1.366-.957,2.779-2.105,3.633-.495.324-1.045.486-1.64.486-1.007,0-2.088-.491-2.893-1.313-.775-.795-1.208-1.807-1.186-2.776-.013-.258-.006-.532.021-.846-.712.348-1.454.758-2.236,1.19-1.278.707-2.601,1.438-3.89,1.943-2.449.976-5.101,1.513-7.466,1.513-3.679,0-6.528-1.271-8.239-3.679l-.188-.257c-.331-.459-.707-.979-1.122-.979-.168,0-.337.082-.517.251-2.988,2.31-8.234,4.787-12.714,4.787-3.286,0-5.702-1.264-7.182-3.757-.21-.302-.433-.451-.676-.451-.381,0-.802.354-1.247.729l-.109.091c-.619.501-1.288,1.028-1.993,1.508-1.745,1.31-4.259,2.062-6.892,2.062ZM199.893,32.364c-.264,0-.536.03-.81.09-2.997.918-5.895,6.93-6.231,10.373-.052.757.058,1.747.523,2.245.198.213.45.32.749.32.102,0,.21-.012.323-.036.771-.161,1.615-1.127,2.293-1.902.172-.197.335-.384.485-.544,1.237-1.653,3.646-5.899,4.512-7.962.303-.702.301-1.318-.005-1.783-.335-.509-1.006-.801-1.84-.801ZM286.394,10.234c-.761,0-1.58.423-2.503,1.294-.934.826-3.719,4.423-3.471,6.168.054.378.242.639.577.797.065.008.165.017.27.017,1.15,0,2.896-1.043,4.445-2.657,1.359-1.415,2.18-2.879,2.142-3.821.04-.831-.467-1.745-1.354-1.793l-.106-.129v.125Z"/>
        <path class="cls-3" d="M285.035,5.216c.735,0,1.478.104,2.216.329,8.959,3.777,3.771,14.342-3.222,17.593-2.047,1.106-4.775,1.577-6.294,3.385-1.014,1.341-1.758,3.817-2.136,5.642-.114.824.01,1.141.282,1.141.538,0,1.656-1.239,2.665-2.248l.066-.066c1.772-1.826,4.073-3.336,6.619-3.335.364,0,.733.031,1.106.096,2.302.383,4.76,1.963,5.628,4.082,1.397,3.661-1.28,7.221-2.249,10.642-.418,1.701.061,2.342.878,2.342.83,0,2.009-.664,2.946-1.553,1.152-1.019,2.151-2.2,3.053-3.385,1.005-1.298,2.393-3.353,4.017-3.353.397,0,.808.123,1.231.41,1.958,1.797-.003,4.673-1.192,6.414-2.927,4.169-8.006,8.728-13.01,8.728-1.397,0-2.788-.355-4.124-1.173-5.275-3.307-2.622-9.855-.389-14.386.578-1.302.664-2.98-.61-2.98-.256,0-.567.068-.939.219-1.273.529-2.368,1.619-3.309,2.628-2.734,3.025-4.915,6.72-6.413,10.522-.695,1.65-1.052,3.778-2.546,4.888-.49.32-1.026.463-1.566.463-1.975,0-4-1.903-3.953-3.962-.017-.354.004-.707.042-1.058-1.945.925-4.185,2.391-6.317,3.227-2.21.88-4.86,1.504-7.42,1.504-3.194,0-6.249-.971-8.137-3.626-.396-.522-.845-1.29-1.413-1.29-.187,0-.387.083-.602.285-2.946,2.276-8.115,4.753-12.628,4.753-2.87,0-5.476-1.002-7.075-3.695-.258-.37-.518-.513-.783-.513-.46,0-.934.429-1.437.849-.645.52-1.3,1.035-1.984,1.5-1.765,1.324-4.309,2.041-6.821,2.041-3.206,0-6.359-1.167-7.77-3.728-.37-.658-.448-2.428-1.087-2.428-.204,0-.465.18-.81.634-.855,1.156-1.564,2.588-2.694,3.467-1.371,1.165-2.965,1.69-4.53,1.69-2.957,0-5.81-1.874-6.852-4.84-2.608-8.94,4.385-19.478,13.833-19.478.234,0,.47.006.707.02.024,0,.047,0,.071,0,1.097,0,2.171.602,3.234.602.348,0,.696-.065,1.043-.237.628-.301,1.186-.758,1.874-.902.307-.061.644-.092.996-.092,1.612,0,3.545.64,4.386,1.928.858,1.329-.415,2.59-.858,3.812-1.219,3.323-3.271,8.409-2.058,11.795.397.763,1.019,1.079,1.774,1.079,3.141,0,8.579-5.482,9.691-7.123,1.407-1.9,2.952-4.399,2.688-6.805-.202-.535-.893-.408-1.973-.514-2.224-.08-2.214-2.504-.459-3.287,1.233-.478,2.946.149,3.972-.708.368-.288.624-.716.818-1.146,1.553-3.483,1.916-7.751,4.178-10.848.811-1.036,2.216-1.605,3.581-1.605,1.227,0,2.422.46,3.125,1.452.392.734.164,1.622-.054,2.386-.757,2.522-2.328,5.464-2.992,8.011-.101.588-.441,1.493.148,1.893,1.442.647,3.883-.287,2.947,2.571-.896,2.384-4.117.401-5.384,2.305-1.396,2.504-2.289,7.116-2.728,9.507-.363,2.336.713,3.38,2.396,3.38.639,0,1.367-.151,2.136-.438,1.533-.544,2.734-1.358,3.995-2.342,5.268-4.155,4.713-8.322,8.351-11.59,1.98-1.729,4.761-2.992,7.464-2.992,1.154,0,2.294.23,3.35.752,1.268.656,2.348,1.873,2.786,3.269.56,1.687.494,3.807-.502,5.037-.446.606-1.296.993-2.084.993-.343,0-.674-.073-.955-.234-1.287-.882-.189-3.233-1.045-4.273-.388-.386-.805-.559-1.233-.559-3.387,0-7.414,10.874-2.785,12.826.557.239,1.194.348,1.89.348,4.797,0,12.338-5.204,14.902-8.941.643-2.068,1.277-4.132,1.829-6.193,1.489-5.189,1.127-6.824-4.312-8.307-3.862-1.219-7.914-2.134-11.876-2.134-3.632,0-7.188.77-10.448,2.78-.753.411-1.52.644-2.23.644-1.164,0-2.175-.626-2.725-2.121-1.272-3.684,1.767-7.924,5.066-9.533,1.848-.945,3.725-1.324,5.613-1.324,5.762,0,11.626,3.533,17.059,5.313,1.489.391,3.22.997,4.835.997.96,0,1.879-.214,2.681-.816,1.292-1.07,2.274-3.373,3.364-5.007,2.017-3.19,5.66-6.005,9.486-6.004M281.267,18.634c2.452,0,6.802-4.371,6.711-6.609.043-.893-.506-1.861-1.471-1.913l-.073-.004c-.013,0-.026,0-.04,0-.978,0-1.892.671-2.589,1.329-1.117.987-5.082,6.119-2.861,7.169.104.019.211.028.324.028M194.124,45.518c.109,0,.225-.013.349-.039,1.012-.212,2.085-1.674,2.843-2.483,1.248-1.665,3.662-5.917,4.536-7.999.755-1.75-.409-2.758-1.959-2.758-.27,0-.551.031-.836.093l-.073.016c-3.102.956-5.929,7.117-6.256,10.467-.076,1.09.17,2.703,1.397,2.703M285.035,4.966v.25s0-.25,0-.25c-4.3,0-7.911,3.297-9.697,6.121-.356.534-.709,1.153-1.05,1.752-.701,1.231-1.426,2.503-2.262,3.196-.678.508-1.506.758-2.522.758-1.251,0-2.561-.37-3.828-.728-.323-.091-.638-.18-.944-.26-1.663-.546-3.351-1.25-5.137-1.996-3.914-1.635-7.962-3.325-11.985-3.325-2.075,0-3.948.442-5.727,1.351-3.546,1.73-6.481,6.097-5.189,9.837.544,1.478,1.595,2.29,2.962,2.29.728,0,1.54-.233,2.349-.674,3.004-1.853,6.379-2.75,10.329-2.75,3.416,0,7.276.694,11.801,2.122,2.629.717,3.934,1.43,4.515,2.462.676,1.201.377,2.94-.368,5.538-.557,2.079-1.202,4.178-1.816,6.151-2.689,3.888-10.117,8.801-14.675,8.801-.681,0-1.284-.11-1.791-.328-1.674-.706-2.316-2.885-1.721-5.83.69-3.41,2.79-6.516,4.408-6.516.376,0,.732.164,1.056.486.311.379.301,1.053.29,1.767-.013.925-.029,1.974.79,2.535.323.185.696.278,1.097.278.884,0,1.803-.44,2.285-1.095,1.117-1.38,1.076-3.64.538-5.264-.446-1.425-1.534-2.702-2.908-3.413-1.049-.518-2.213-.78-3.465-.78-2.588,0-5.439,1.141-7.629,3.053-1.65,1.482-2.449,3.127-3.296,4.869-1.059,2.18-2.155,4.433-5.046,6.713-1.284,1.002-2.443,1.778-3.923,2.303-.754.282-1.443.424-2.052.424-.767,0-1.346-.223-1.723-.662-.451-.527-.595-1.344-.426-2.429.342-1.864,1.255-6.832,2.7-9.424.515-.772,1.446-.804,2.431-.837,1.141-.039,2.435-.083,2.968-1.501.291-.887.299-1.492.028-1.912-.349-.542-1.08-.623-1.787-.701-.461-.051-.938-.103-1.319-.274-.285-.198-.208-.68-.073-1.287.026-.119.051-.232.069-.335.348-1.331.971-2.824,1.574-4.268.52-1.246,1.058-2.534,1.412-3.714.197-.686.492-1.719.036-2.575-.717-1.016-1.931-1.584-3.345-1.584-1.509,0-2.956.651-3.778,1.701-1.416,1.939-2.105,4.329-2.771,6.641-.414,1.438-.843,2.924-1.438,4.259-.22.488-.463.832-.743,1.051-.525.438-1.275.442-2.069.445-.624.003-1.27.006-1.839.226-.993.442-1.574,1.431-1.395,2.355.165.848.888,1.377,1.935,1.415.244.025.482.037.696.048.681.035.944.068,1.042.279.243,2.382-1.391,4.902-2.644,6.594-1.152,1.699-6.489,7.022-9.49,7.022-.713,0-1.221-.309-1.552-.945-1.091-3.052.596-7.608,1.828-10.935l.243-.658c.114-.315.287-.634.471-.971.501-.923,1.069-1.969.363-3.062-.921-1.411-2.972-2.042-4.596-2.042-.372,0-.723.032-1.045.096-.499.104-.923.353-1.334.593-.197.115-.394.231-.6.329-.289.143-.594.212-.935.212-.493,0-.994-.14-1.524-.288-.552-.154-1.123-.314-1.71-.314h-.077c-.222-.012-.462-.019-.701-.019-4.313,0-8.424,2.183-11.278,5.989-3.076,4.101-4.12,9.263-2.794,13.809,1.056,3.008,3.904,5.02,7.092,5.02,1.723,0,3.345-.605,4.692-1.75.822-.639,1.426-1.559,2.01-2.448.245-.373.476-.726.724-1.06.376-.494.561-.532.609-.532.212,0,.41.796.517,1.223.104.416.202.81.352,1.077,1.33,2.413,4.317,3.855,7.988,3.855,2.659,0,5.2-.762,6.971-2.091.697-.474,1.37-1.004,1.991-1.506l.114-.095c.427-.359.831-.698,1.166-.698.073,0,.295,0,.578.406,1.494,2.518,3.947,3.802,7.28,3.802,4.533,0,9.686-2.413,12.781-4.805.172-.16.317-.233.449-.233.352,0,.723.515,1.021.928.066.091.13.18.193.263,1.731,2.435,4.616,3.725,8.337,3.725,2.381,0,5.049-.54,7.513-1.521,1.297-.509,2.623-1.242,3.906-1.952.708-.392,1.383-.765,2.032-1.09-.014.233-.015.446-.006.652-.023.985.422,2.03,1.221,2.848.827.847,1.942,1.352,2.982,1.352.62,0,1.193-.169,1.703-.503,1.191-.885,1.684-2.316,2.16-3.7.158-.459.307-.892.479-1.3,1.558-3.953,3.76-7.565,6.368-10.451.902-.968,1.971-2.046,3.22-2.565.326-.133.61-.2.843-.2.275,0,.47.093.594.285.29.445.202,1.409-.213,2.344-2.522,5.115-4.75,11.418.485,14.699,1.314.804,2.746,1.211,4.257,1.211,5.175,0,10.353-4.759,13.214-8.834,1.226-1.796,3.275-4.798,1.156-6.742-.472-.323-.933-.475-1.4-.475-1.591,0-2.933,1.767-3.914,3.057l-.301.394c-1.082,1.421-2.041,2.485-3.021,3.351-.942.894-2.056,1.49-2.78,1.49-.268,0-.46-.079-.587-.241-.17-.217-.316-.703-.048-1.792.271-.955.675-1.915,1.103-2.931,1.067-2.533,2.17-5.152,1.137-7.859-.847-2.07-3.24-3.811-5.82-4.24-.377-.066-.763-.099-1.147-.099-2.882,0-5.288,1.855-6.798,3.411l-.064.064c-.157.157-.317.32-.477.483-.701.714-1.661,1.691-2.01,1.691-.01,0-.137-.114-.034-.857.183-.881.881-3.931,2.088-5.525.965-1.148,2.502-1.753,3.988-2.338.753-.296,1.532-.603,2.226-.978,4.622-2.148,8.191-7.199,8.114-11.492-.037-2.059-.92-4.868-4.914-6.551-.764-.234-1.534-.349-2.313-.349h0ZM281.021,18.366c-.275-.14-.431-.365-.477-.687-.242-1.704,2.509-5.242,3.427-6.054.906-.854,1.696-1.266,2.424-1.266l.099.004c.811.043,1.272.891,1.235,1.651.037.932-.771,2.361-2.107,3.753-1.527,1.59-3.236,2.618-4.355,2.618-.085,0-.167-.006-.246-.018h0ZM194.124,45.268c-.267,0-.482-.092-.658-.281-.438-.47-.54-1.421-.489-2.155.333-3.404,3.19-9.355,6.08-10.246l.054-.011c.263-.058.527-.087.782-.087.78,0,1.428.279,1.735.745.281.428.279,1.003-.006,1.663-.864,2.058-3.264,6.29-4.506,7.948-.134.141-.298.328-.471.527-.665.761-1.493,1.709-2.223,1.862-.106.023-.206.034-.298.034h0Z"/>
      </g>
    </g>
    <g>
      <path class="cls-1" d="M13.074,83.743c-6.315,0-10.708-3.159-12.369-8.895-1.98-6.839,1.516-14.22,4.326-20.15l.568-1.203c.487-.979,1.041-1.475,1.647-1.475.733,0,1.479.767,2.046,2.104,4.371,9.255,3.85,10.077,3.678,10.347-.075.118-.191.182-.335.182-.128,0-.278-.049-.457-.149-.171-.11-.349-.23-.537-.358-.988-.669-2.218-1.501-3.285-1.501-.641,0-1.137.303-1.52.927-1.463,3.352-1.862,6.736-1.146,9.773.321,1.64,1.428,2.78,3.487,3.595.828.344,1.689.518,2.561.518,6.29,0,12.111-8.933,13.692-13.489,1.51-4.462,3.042-8.882,4.536-13.188,3.129-9.024,6.085-17.548,8.291-24.909.152-1.429-.883-1.819-1.979-2.231-1.082-.408-2.202-.83-2.173-2.292.023-.979.674-1.936,1.658-2.437.858-.479,1.909-.556,2.924-.631.901-.067,1.753-.13,2.46-.454,1.239-.555,1.831-1.534,2.517-2.669.119-.196.24-.398.369-.603.293-.49.582-.991.871-1.493.546-.947,1.111-1.927,1.712-2.844C49.804,5.339,55.937.126,63.595.126c.152,0,.305.002.457.006,4.836.354,10.238,2.736,10.915,8.367l.021.126c.394,1.991-.155,4.321-1.366,5.795-.896,1.091-2.096,1.667-3.469,1.667h0c-.181,0-.366-.01-.558-.03-1.312-.167-2.368-.856-3.39-1.524-1.061-.692-2.063-1.347-3.249-1.347-.498,0-.993.113-1.515.347-1.327.373-4.739,3.438-4.705,5.115.01.519.349.849,1.036,1.012.504.146,1.069.188,1.668.232,1.044.079,2.123.16,2.896.811.419.381.593,1.002.494,1.753-.144,1.096-.836,2.168-1.685,2.608-.673.342-1.44.494-2.489.494-.462,0-.933-.028-1.403-.058-.466-.028-.931-.057-1.389-.057-1.165,0-1.994.199-2.688.648-1.272.769-1.927,1.968-2.355,2.928-1.116,2.517-3.094,7.901-4.078,10.749-.172.558-.394,1.32-.663,2.245-2.307,7.913-8.433,28.934-16.32,34.585-3.917,4.2-10.786,7.145-16.685,7.145Z"/>
      <path class="cls-3" d="M63.596.25c.15,0,.302.002.452.006,5.291.387,10.16,2.975,10.795,8.257l.021.131c.597,3.014-.981,7.317-4.712,7.317-.176,0-.358-.01-.544-.029-2.638-.336-4.274-2.872-6.653-2.872-.486,0-1.003.106-1.565.357-1.682.472-7.11,5.541-3.647,6.364,1.398.403,3.343.033,4.513,1.016,1.023.933.285,3.401-1.168,4.155-.751.382-1.577.481-2.431.481-.92,0-1.872-.115-2.792-.115-.979,0-1.923.13-2.757.668-1.203.727-1.88,1.814-2.402,2.982-1.087,2.452-3.018,7.683-4.081,10.759-1.698,5.522-8.196,30.506-16.938,36.769-3.815,4.088-10.535,7.121-16.612,7.121-5.465,0-10.41-2.455-12.249-8.805-2.1-7.251,1.949-15.009,4.887-21.265.493-.991,1.022-1.403,1.534-1.402.731,0,1.427.84,1.931,2.027,1.949,4.126,4.704,10.354,3.458,10.354-.103,0-.234-.043-.395-.133-1.025-.662-2.568-1.876-3.883-1.876-.618,0-1.186.268-1.626.987-1.392,3.186-1.932,6.601-1.162,9.868.363,1.858,1.696,2.944,3.563,3.682.872.362,1.743.526,2.606.526,6.342,0,12.185-8.888,13.811-13.573,4.674-13.816,9.57-27.225,12.828-38.101.325-3.02-4.202-1.739-4.146-4.557.023-.965.679-1.864,1.589-2.328,1.58-.88,3.83-.372,5.38-1.083,1.491-.668,2.062-1.919,2.939-3.318.86-1.439,1.671-2.944,2.582-4.335C50.25,4.883,56.456.25,63.596.25M63.596,0c-7.708,0-13.879,5.242-17.084,10.148-.601.918-1.166,1.897-1.712,2.844-.29.503-.58,1.005-.875,1.499-.126.201-.249.404-.368.602-.674,1.115-1.256,2.079-2.458,2.617-.688.316-1.529.378-2.419.444-1.029.076-2.094.155-2.981.649-1.016.518-1.693,1.517-1.717,2.541-.03,1.551,1.183,2.008,2.253,2.411,1.095.412,2.04.769,1.894,2.124-2.195,7.312-5.15,15.831-8.278,24.851-1.489,4.292-3.028,8.731-4.539,13.196-1.571,4.526-7.347,13.403-13.574,13.403-.855,0-1.7-.171-2.51-.507-2.019-.799-3.103-1.911-3.413-3.499-.712-3.02-.315-6.378,1.145-9.72.341-.553.803-.837,1.397-.837,1.029,0,2.242.821,3.217,1.481.188.127.366.248.531.354.211.119.381.173.531.173.187,0,.343-.085.441-.239.199-.315.729-1.151-3.673-10.472-.593-1.396-1.36-2.17-2.157-2.171-.658,0-1.249.518-1.758,1.541l-.571,1.209c-2.818,5.95-6.325,13.354-4.332,20.237,1.678,5.795,6.114,8.986,12.489,8.986,5.931,0,12.838-2.961,16.795-7.201,7.885-5.643,14.02-26.694,16.33-34.618.269-.924.492-1.686.664-2.248.978-2.83,2.952-8.207,4.071-10.731.448-1.001,1.072-2.126,2.303-2.869.679-.439,1.488-.632,2.627-.632.452,0,.924.029,1.381.057.464.029.944.058,1.412.058,1.069,0,1.854-.157,2.545-.508.898-.466,1.602-1.553,1.753-2.704.104-.793-.085-1.453-.53-1.858-.811-.683-1.911-.765-2.974-.845-.592-.044-1.151-.087-1.638-.227-.938-.223-.948-.729-.951-.896-.032-1.592,3.346-4.636,4.597-4.987.539-.238,1.018-.348,1.497-.348,1.149,0,2.136.645,3.182,1.327,1.033.675,2.102,1.372,3.44,1.543.2.021.391.031.575.031,1.413,0,2.646-.592,3.567-1.713,1.233-1.501,1.792-3.873,1.391-5.902l-.02-.123c-.448-3.73-3.58-7.922-11.023-8.467-.164-.005-.318-.007-.471-.007h0Z"/>
    </g>
  </g>
</svg>