<?xml version="1.0" encoding="UTF-8"?>
<svg id="Layer_1" data-name="Layer 1" xmlns="http://www.w3.org/2000/svg" viewBox="0 0 152.151 42.466">
  <defs>
    <style>
      .cls-1 {
        fill: #28404c;
      }

      .cls-2 {
        fill: #7e9ba7;
      }

      .cls-3 {
        fill: #cdd4d9;
      }
    </style>
  </defs>
  <g>
    <path class="cls-1" d="M72.238,19.454c-.961,1.017-3.016,4.337-4.45,4.436-1.43.098-.554-2.732-.345-3.574.168-.677.632-2.411.921-2.963.568-1.084,2.68.379,2.922-1.517.187-1.461-1.487-.099-1.877-1.103l1.866-5.746c-.598-1.199-2.532-1.117-3.421-.248-.492.48-1.031,2.103-1.29,2.816-.241.663-.741,2.807-1.067,3.206-.683.834-3.082-.337-2.958,1.524.075,1.12,1.863.192,2.058.947.025.098-.434,1.74-.521,1.911-.128.251-1.126,1.47-1.375,1.755-.405.464-3.062,2.978-3.605,2.44.411-1.806-.676-3.284-1.165-4.883-.418-1.368-.378-2.813,1.362-2.908.676-1.278-1.41-1.931-2.346-1.855-2.651.215-4.933,3.439-6.511,5.229-.433.492-1.153.942-1.544,1.477-.413.564-.537,1.312-.993,1.892-.632.803-2.292,2.009-3.305,1.355-.741-.86,1.343-3.319,1.766-4.116.537-1.011.875-2.184.185-3.219-1.13-1.694-4.244-1.231-5.97-.962-.213-.23.75-1.669-.8-2.252-2.202-.828-3.34-.079-4.045,2.01-.3.889-.807,2.269.305,2.76.016.192-.055.362-.115.538-.302.885-2.827,3.919-3.611,4.599-.569.494-2.274,1.804-2.582.366-.274-1.279,2.015-5.537,2.418-6.977.14-.788-1.344-1.261-1.94-1.275-.343-.009-1.193.231-1.489.406-.723.43-1.54,2.924-1.867,3.792-.889,2.361-2.515,5.987.429,7.618,4.257,2.358,9.028-3.987,10.803-7.144.282-.502.46-1.073.764-1.566.28-.219,2.148-.362,2.566-.327.218.018.828.06.812.37-.022.411-1.697,2.657-2.022,3.31-1.389,2.791-.885,5.097,2.37,5.814,2.396.528,4.121-.564,6.03-1.82,3.357,4.336,10.624,2.935,14.21-.427.272-.024.675.886.941,1.14,2.425,2.318,5.681.36,7.589-1.569.879-.889,2.46-2.828,2.789-4.037.284-1.045-1.063-1.834-1.888-1.224ZM55.102,23.394c-1.275,1.64-3.589.014-2.712-1.493.643-1.105,3.187-.289,2.203-2.215-.041-.338-.924-.368-.821-.618.061-.148.966-.978,1.108-.834.294,1.534,1.323,3.745.222,5.161Z"/>
    <g>
      <path class="cls-1" d="M89.036,9.08c-1.096.798-2.323,2.473-3.026,3.638-1.577,2.614-3.899,8.154-2.24,11.003.826,1.419,2.576,1.737,3.729.482.437-.476.823-1.193.628-1.851-.232-.779-1.41-1.275-.253-2.349,1.523-1.414,3.917.046,4.192,1.962.48,3.34-3.664,6.065-6.654,5.837-13.368-1.017-2.694-25.75,7.818-21.742,5.241,1.998,1.368,9.754-2.879,8.272-1.004-.35-1.832-1.58-1.276-2.623.322-.604,1.207-.123,1.667-.096,1.606.096,3.005-2.576,1.478-3.236-1.189-.515-2.239.012-3.184.701Z"/>
      <path class="cls-1" d="M151.736,19.125c-1.077-.73-1.999.664-2.624,1.472-.451.592-.95,1.183-1.526,1.693-.928.881-2.333,1.321-1.912-.394.485-1.71,1.823-3.49,1.124-5.321-.434-1.06-1.663-1.85-2.814-2.041-1.491-.26-2.849.576-3.862,1.62l-.033.033c-.76.76-1.643,1.78-1.473.554.189-.913.561-2.151,1.068-2.821.76-.904,2.124-1.139,3.147-1.692,3.496-1.626,6.09-6.908,1.611-8.797-2.291-.699-4.649.936-5.851,2.837-.545.817-1.036,1.969-1.682,2.503-1.076.806-2.571.221-3.758-.091-3.606-1.182-7.593-3.908-11.336-1.994-1.65.805-3.169,2.925-2.533,4.766.443,1.204,1.483,1.281,2.477.739,3.408-2.102,7.461-1.491,11.162-.323,2.72.742,2.9,1.559,2.156,4.154-.276,1.031-.593,2.063-.914,3.097-1.468,2.139-6.198,5.24-8.396,4.296-2.607-1.099.276-7.855,2.009-6.133.428.52-.121,1.695.523,2.137.463.265,1.199.056,1.52-.379.498-.615.531-1.675.251-2.519-.219-.698-.759-1.307-1.393-1.635-1.766-.873-3.995-.114-5.407,1.12-1.819,1.634-1.541,3.718-4.176,5.795-.63.492-1.231.899-1.997,1.171-1.397.522-2.516.141-2.266-1.471.22-1.196.666-3.502,1.364-4.754.633-.952,2.244.04,2.692-1.152.468-1.429-.753-.962-1.473-1.286-.295-.2-.125-.653-.074-.947.332-1.274,1.118-2.744,1.496-4.006.109-.382.223-.826.027-1.193-.742-1.048-2.583-.907-3.353.076-1.131,1.549-1.312,3.683-2.089,5.424-.097.215-.225.429-.409.573-.513.428-1.37.115-1.986.354-.878.392-.882,1.603.23,1.644.54.053.886-.01.987.257.132,1.203-.64,2.453-1.344,3.402-.69,1.018-4.707,4.99-5.733,3.022-.606-1.693.419-4.236,1.029-5.897.222-.611.858-1.241.429-1.906-.513-.785-1.836-1.088-2.691-.918-.344.072-.623.301-.937.451-.713.354-1.433-.2-2.174-.182-4.901-.271-8.606,5.148-7.27,9.729.797,2.268,3.71,3.259,5.691,1.575.565-.44.92-1.156,1.347-1.734.714-.938.705.463.948.897,1.258,2.283,5.287,2.351,7.296.843.342-.232.67-.49.992-.75.396-.331.758-.674,1.11-.168,2.056,3.464,7.442,1.333,9.851-.529.435-.408.744.155,1.007.502,1.701,2.392,5.295,2.05,7.779,1.061,1.066-.418,2.186-1.151,3.158-1.614-.019.176-.029.352-.021.529-.03,1.311,1.62,2.495,2.76,1.75.747-.555.926-1.619,1.273-2.444.749-1.901,1.84-3.749,3.207-5.261.47-.505,1.018-1.05,1.655-1.314,1.114-.454,1.122.599.775,1.38-1.117,2.265-2.443,5.54.194,7.193,3.063,1.874,6.695-1.111,8.567-3.777.594-.871,1.575-2.309.596-3.207ZM142.719,6.375c.354-.333.818-.673,1.314-.664l.037.002c.482.026.757.51.736.956.047,1.17-2.333,3.506-3.517,3.29-1.11-.525.872-3.091,1.431-3.585ZM101.742,18.155c-.437,1.041-1.644,3.167-2.268,3.999-.379.405-.915,1.136-1.421,1.242-.765.164-.914-.739-.873-1.332.164-1.675,1.577-4.756,3.128-5.234l.037-.008c.961-.211,1.841.305,1.398,1.332Z"/>
    </g>
    <path class="cls-1" d="M38.238,4.913c-.317-2.641-2.752-3.935-5.397-4.129-3.665-.101-6.862,2.257-8.663,5.014-.455.696-.861,1.448-1.291,2.168-.439.699-.724,1.325-1.469,1.659-.775.355-1.9.102-2.69.541-.455.232-.783.682-.794,1.164-.028,1.409,2.236.768,2.073,2.278-1.629,5.438-4.077,12.143-6.414,19.051-.924,2.661-4.568,8.034-8.209,6.523-.933-.369-1.6-.912-1.781-1.841-.385-1.633-.115-3.341.581-4.934.688-1.124,2.001-.042,2.755.445,1.052.591-.476-2.876-1.531-5.11-.428-1.009-1.134-1.516-1.733-.312-1.469,3.128-3.493,7.007-2.443,10.632,1.942,6.705,10.807,4.724,14.43.842,4.371-3.132,7.62-15.624,8.469-18.384.532-1.538,1.497-4.153,2.041-5.38.261-.584.6-1.128,1.201-1.491,1.171-.756,2.78.099,3.99-.517.726-.377,1.096-1.611.584-2.077-.585-.492-1.557-.307-2.256-.508-1.731-.411.982-2.946,1.823-3.182,1.659-.742,2.521,1.055,4.109,1.257,2.06.22,2.94-2.066,2.628-3.644l-.011-.066Z"/>
  </g>
  <path class="cls-3" d="M71.299,18.673c-.961,1.017-3.016,4.337-4.45,4.436-1.43.098-.554-2.732-.345-3.574.168-.677.632-2.411.921-2.963.568-1.084,2.68.379,2.922-1.517.187-1.461-1.487-.099-1.877-1.103l1.866-5.746c-.598-1.199-2.532-1.117-3.421-.248-.492.48-1.031,2.103-1.29,2.816-.241.663-.741,2.807-1.067,3.206-.683.834-3.082-.337-2.958,1.524.075,1.12,1.863.192,2.058.947.025.098-.434,1.74-.521,1.911-.128.251-1.126,1.47-1.375,1.755-.405.464-3.062,2.978-3.605,2.44.411-1.806-.676-3.284-1.165-4.883-.418-1.368-.378-2.813,1.362-2.908.676-1.278-1.41-1.931-2.346-1.855-2.651.215-4.933,3.439-6.511,5.229-.433.492-1.153.942-1.544,1.477-.413.564-.537,1.312-.993,1.892-.632.803-2.292,2.009-3.305,1.355-.741-.86,1.343-3.319,1.766-4.116.537-1.011.875-2.184.185-3.219-1.13-1.694-4.244-1.231-5.97-.962-.213-.23.75-1.669-.8-2.252-2.202-.828-3.34-.079-4.045,2.01-.3.889-.807,2.269.305,2.76.016.192-.055.362-.115.538-.302.885-2.827,3.919-3.611,4.599-.569.494-2.274,1.804-2.582.366-.274-1.279,2.015-5.537,2.418-6.977.14-.788-1.344-1.261-1.94-1.275-.343-.009-1.193.231-1.489.406-.723.43-1.54,2.924-1.867,3.792-.889,2.361-2.515,5.987.429,7.618,4.257,2.358,9.028-3.987,10.803-7.144.282-.502.46-1.073.764-1.566.28-.219,2.148-.362,2.566-.327.218.018.828.06.812.37-.022.411-1.697,2.657-2.022,3.31-1.389,2.791-.885,5.097,2.37,5.814,2.396.528,4.121-.564,6.03-1.82,3.357,4.336,10.624,2.935,14.21-.427.272-.024.675.886.941,1.14,2.425,2.318,5.681.36,7.589-1.569.879-.889,2.46-2.828,2.789-4.037.284-1.045-1.063-1.834-1.888-1.224ZM54.163,22.612c-1.275,1.64-3.589.014-2.712-1.493.643-1.105,3.187-.289,2.203-2.215-.041-.338-.924-.368-.821-.618.061-.148.966-.978,1.108-.834.294,1.534,1.323,3.745.222,5.161Z"/>
  <path class="cls-3" d="M88.097,8.299c-1.096.798-2.323,2.473-3.026,3.638-1.577,2.614-3.899,8.154-2.24,11.003.826,1.419,2.576,1.737,3.729.482.437-.476.823-1.193.628-1.851-.232-.779-1.41-1.275-.253-2.349,1.523-1.414,3.917.046,4.192,1.962.48,3.34-3.664,6.065-6.654,5.837-13.368-1.017-2.694-25.75,7.818-21.742,5.241,1.998,1.368,9.754-2.879,8.272-1.004-.35-1.832-1.58-1.276-2.623.322-.604,1.207-.123,1.667-.096,1.606.096,3.005-2.576,1.478-3.236-1.189-.515-2.239.012-3.184.701Z"/>
  <path class="cls-3" d="M150.797,18.343c-1.077-.73-1.999.664-2.624,1.472-.451.592-.95,1.183-1.526,1.693-.928.881-2.333,1.321-1.912-.394.485-1.71,1.823-3.49,1.124-5.321-.434-1.06-1.663-1.85-2.814-2.041-1.491-.26-2.849.576-3.862,1.62l-.033.033c-.76.76-1.643,1.78-1.473.554.189-.913.561-2.151,1.068-2.821.76-.904,2.124-1.139,3.147-1.692,3.496-1.626,6.09-6.908,1.611-8.797-2.291-.699-4.649.936-5.851,2.837-.545.817-1.036,1.969-1.682,2.503-1.076.806-2.571.221-3.758-.091-3.606-1.182-7.593-3.908-11.336-1.994-1.65.805-3.169,2.925-2.533,4.766.443,1.204,1.483,1.281,2.477.739,3.408-2.102,7.461-1.491,11.162-.323,2.72.742,2.9,1.559,2.156,4.154-.276,1.031-.593,2.063-.914,3.097-1.468,2.139-6.198,5.24-8.396,4.296-2.607-1.099.276-7.855,2.009-6.133.428.52-.121,1.695.523,2.137.463.265,1.199.056,1.52-.379.498-.615.531-1.675.251-2.519-.219-.698-.759-1.307-1.393-1.635-1.766-.873-3.995-.114-5.407,1.12-1.819,1.634-1.541,3.718-4.176,5.795-.63.492-1.231.899-1.997,1.171-1.397.522-2.516.141-2.266-1.471.22-1.196.666-3.502,1.364-4.754.633-.952,2.244.04,2.692-1.152.468-1.429-.753-.962-1.473-1.286-.295-.2-.125-.653-.074-.947.332-1.274,1.118-2.744,1.496-4.006.109-.382.223-.826.027-1.193-.742-1.048-2.583-.907-3.353.076-1.131,1.549-1.312,3.683-2.089,5.424-.097.215-.225.429-.409.573-.513.428-1.37.115-1.986.354-.878.392-.882,1.603.23,1.644.54.053.886-.01.987.257.132,1.203-.64,2.453-1.344,3.402-.69,1.018-4.707,4.99-5.733,3.022-.606-1.693.419-4.236,1.029-5.897.222-.611.858-1.241.429-1.906-.513-.785-1.836-1.088-2.691-.918-.344.072-.623.301-.937.451-.713.354-1.433-.2-2.174-.182-4.901-.271-8.606,5.148-7.27,9.729.797,2.268,3.71,3.259,5.691,1.575.565-.44.92-1.156,1.347-1.734.714-.938.705.463.948.897,1.258,2.283,5.287,2.351,7.296.843.342-.232.67-.49.992-.75.396-.331.758-.674,1.11-.168,2.056,3.464,7.442,1.333,9.851-.529.435-.408.744.155,1.007.502,1.701,2.392,5.295,2.05,7.779,1.061,1.066-.418,2.186-1.151,3.158-1.614-.019.176-.029.352-.021.529-.03,1.311,1.62,2.495,2.76,1.75.747-.555.926-1.619,1.273-2.444.749-1.901,1.84-3.749,3.207-5.261.47-.505,1.018-1.05,1.655-1.314,1.114-.454,1.122.599.775,1.38-1.117,2.265-2.443,5.54.194,7.193,3.063,1.874,6.695-1.111,8.567-3.777.594-.871,1.575-2.309.596-3.207ZM141.78,5.594c.354-.333.818-.673,1.314-.664l.037.002c.482.026.757.51.736.956.047,1.17-2.333,3.506-3.517,3.29-1.11-.525.872-3.091,1.431-3.585ZM100.804,17.373c-.437,1.041-1.644,3.167-2.268,3.999-.379.405-.915,1.136-1.421,1.242-.765.164-.914-.739-.873-1.332.164-1.675,1.577-4.756,3.128-5.234l.037-.008c.961-.211,1.841.305,1.398,1.332Z"/>
  <path class="cls-2" d="M37.299,4.132C36.982,1.491,34.547.197,31.902.003c-3.665-.101-6.862,2.257-8.663,5.014-.455.696-.861,1.448-1.291,2.168-.439.699-.724,1.325-1.469,1.659-.775.355-1.9.102-2.69.541-.455.232-.783.682-.794,1.164-.028,1.409,2.236.768,2.073,2.278-1.629,5.438-4.077,12.143-6.414,19.051-.924,2.661-4.568,8.034-8.209,6.523-.933-.369-1.6-.912-1.781-1.841-.385-1.633-.115-3.341.581-4.934.688-1.124,2.001-.042,2.755.445,1.052.591-.476-2.876-1.531-5.11-.428-1.009-1.134-1.516-1.733-.312-1.469,3.128-3.493,7.007-2.443,10.632,1.942,6.705,10.807,4.724,14.43.842,4.371-3.132,7.62-15.624,8.469-18.384.532-1.538,1.497-4.153,2.041-5.38.261-.584.6-1.128,1.201-1.491,1.171-.756,2.78.099,3.99-.517.726-.377,1.096-1.611.584-2.077-.585-.492-1.557-.307-2.256-.508-1.731-.411.982-2.946,1.823-3.182,1.659-.742,2.521,1.055,4.109,1.257,2.06.22,2.94-2.066,2.628-3.644l-.011-.066Z"/>
</svg>